<svg width="587" height="90" viewBox="0 0 587 90" fill="none" xmlns="http://www.w3.org/2000/svg">
<path d="M46.7305 4.50988L43.6252 2.72961V17.4901L46.7305 19.2925V4.50988Z" fill="black"/>
<path d="M52.9852 8.14811L49.8762 6.34937V21.1288L52.9852 22.9127V8.14811Z" fill="black"/>
<path d="M59.1812 11.7683L56.0759 9.98804V24.7485L59.1812 26.5325V11.7683Z" fill="black"/>
<path d="M6.04712 26.0179L9.15238 27.8019V17.246L6.04712 19.0262V26.0179Z" fill="black"/>
<path d="M2.93874 24.2186V20.8653L0 22.5493L2.93874 24.2186Z" fill="black"/>
<path d="M77.8889 22.5895L74.7984 20.8056V24.3883L71.6894 26.1686V19.0253L68.6026 17.245V27.9123L65.4937 29.6963V15.3875L62.3292 13.548V28.3305L65.1162 29.959V59.8637L64.9644 59.9562L62.3292 58.4424V61.4922L59.1832 63.2724V56.5474L56.0779 54.7079V65.0743L52.9874 66.9101V52.8682L49.8785 51.0324V68.6946L46.7325 70.4748V49.1932L43.6272 47.3537V72.2548L40.5182 74.1128V45.5173L39.0007 44.5105L39.06 14.816L40.5182 15.7079V0.947498L38.8897 0L37.5795 0.73653V15.5562L34.4372 17.3365V2.57602L31.3282 4.35629V19.1199L28.2193 20.9186V6.1953L25.1325 7.97557V22.6989L21.968 24.4829V9.77772L18.8775 11.6135V26.2808L15.7685 28.1203V13.393L12.3005 15.4397V29.578L12.7743 29.8445L12.889 59.9528L15.7685 61.6405V58.2873L18.8775 56.4478V63.4799L21.968 65.2787V54.6083L25.1325 52.7133V67.0592L28.2193 68.8987V50.8773L31.3282 49.0378V70.6786L34.4372 72.4811V47.1797L37.5795 45.344V74.3169L39.0007 75.1534V75.0941V89.9691L77.9444 67.477L77.9999 22.5854L77.8889 22.5895Z" fill="black"/>
<path d="M122.085 35.4141C121.892 33.6153 121.082 32.2147 119.654 31.2124C118.24 30.21 116.4 29.7088 114.134 29.7088C112.541 29.7088 111.175 29.9491 110.036 30.4297C108.896 30.9103 108.024 31.5625 107.42 32.3864C106.816 33.2102 106.507 34.1508 106.493 35.2081C106.493 36.0869 106.692 36.849 107.09 37.4943C107.502 38.1397 108.058 38.6889 108.759 39.142C109.459 39.5814 110.235 39.9522 111.086 40.2543C111.937 40.5563 112.795 40.8104 113.661 41.0163L117.615 42.005C119.208 42.3757 120.739 42.8769 122.208 43.5085C123.691 44.1402 125.016 44.9366 126.183 45.8977C127.364 46.8589 128.298 48.0192 128.984 49.3786C129.671 50.7379 130.014 52.3307 130.014 54.157C130.014 56.6286 129.383 58.8049 128.119 60.6861C126.856 62.5535 125.03 64.0159 122.641 65.0732C120.265 66.1167 117.388 66.6385 114.011 66.6385C110.729 66.6385 107.88 66.1304 105.463 65.1143C103.06 64.0982 101.179 62.6153 99.8196 60.6655C98.474 58.7157 97.7462 56.3402 97.6364 53.5391H105.154C105.264 55.0083 105.717 56.2304 106.513 57.2053C107.31 58.1802 108.347 58.9079 109.624 59.3885C110.914 59.8691 112.356 60.1094 113.949 60.1094C115.61 60.1094 117.066 59.8622 118.315 59.3679C119.579 58.8598 120.567 58.1596 121.281 57.267C121.995 56.3608 122.359 55.3035 122.373 54.0952C122.359 52.9967 122.036 52.0904 121.405 51.3764C120.773 50.6487 119.888 50.0445 118.748 49.5639C117.622 49.0696 116.304 48.6302 114.793 48.2457L109.994 47.0099C106.52 46.1174 103.774 44.7649 101.756 42.9524C99.7509 41.1262 98.7486 38.7027 98.7486 35.6818C98.7486 33.1965 99.4214 31.0201 100.767 29.1527C102.126 27.2853 103.973 25.8366 106.308 24.8068C108.642 23.7633 111.285 23.2415 114.237 23.2415C117.231 23.2415 119.853 23.7633 122.105 24.8068C124.371 25.8366 126.149 27.2715 127.44 29.1115C128.73 30.9377 129.396 33.0386 129.438 35.4141H122.085ZM141.053 47.4631V66H133.597V23.8182H140.888V39.7393H141.259C142 37.9543 143.147 36.5469 144.699 35.517C146.264 34.4735 148.255 33.9517 150.672 33.9517C152.869 33.9517 154.784 34.4117 156.418 35.3317C158.052 36.2517 159.315 37.5973 160.208 39.3686C161.114 41.1399 161.567 43.3026 161.567 45.8565V66H154.111V47.0099C154.111 44.8816 153.562 43.227 152.463 42.0462C151.379 40.8516 149.855 40.2543 147.891 40.2543C146.573 40.2543 145.392 40.5426 144.348 41.1193C143.319 41.6823 142.508 42.4993 141.918 43.5703C141.341 44.6413 141.053 45.9389 141.053 47.4631ZM175.371 66.6385C173.366 66.6385 171.561 66.2815 169.954 65.5675C168.361 64.8397 167.098 63.7687 166.164 62.3544C165.244 60.9401 164.784 59.1963 164.784 57.1229C164.784 55.3378 165.114 53.8617 165.773 52.6946C166.432 51.5275 167.331 50.5938 168.471 49.8935C169.611 49.1932 170.895 48.6645 172.323 48.3075C173.764 47.9368 175.254 47.669 176.792 47.5043C178.646 47.312 180.149 47.1404 181.303 46.9893C182.456 46.8246 183.294 46.5774 183.816 46.2479C184.351 45.9046 184.619 45.3759 184.619 44.6619V44.5384C184.619 42.9867 184.159 41.7853 183.239 40.9339C182.319 40.0826 180.994 39.657 179.264 39.657C177.438 39.657 175.989 40.0552 174.918 40.8516C173.861 41.648 173.147 42.5885 172.776 43.6733L165.814 42.6847C166.363 40.7623 167.27 39.1558 168.533 37.8651C169.796 36.5606 171.341 35.5857 173.167 34.9403C174.993 34.2812 177.012 33.9517 179.223 33.9517C180.747 33.9517 182.264 34.1302 183.774 34.4872C185.285 34.8442 186.665 35.4347 187.914 36.2585C189.164 37.0687 190.166 38.174 190.921 39.5746C191.69 40.9751 192.075 42.7259 192.075 44.8267V66H184.907V61.6541H184.66C184.207 62.5329 183.568 63.3568 182.745 64.1257C181.934 64.8809 180.911 65.492 179.676 65.9588C178.454 66.4119 177.019 66.6385 175.371 66.6385ZM177.307 61.1598C178.804 61.1598 180.101 60.8646 181.2 60.2741C182.298 59.67 183.143 58.8736 183.733 57.8849C184.337 56.8963 184.639 55.8184 184.639 54.6513V50.9233C184.406 51.1155 184.008 51.294 183.445 51.4588C182.896 51.6236 182.278 51.7678 181.591 51.8913C180.905 52.0149 180.225 52.1248 179.552 52.2209C178.879 52.317 178.296 52.3994 177.801 52.468C176.689 52.6191 175.694 52.8662 174.815 53.2095C173.936 53.5528 173.243 54.0334 172.735 54.6513C172.227 55.2554 171.973 56.0381 171.973 56.9993C171.973 58.3724 172.474 59.4091 173.476 60.1094C174.478 60.8097 175.755 61.1598 177.307 61.1598ZM208.412 66.5561C205.927 66.5561 203.702 65.9176 201.739 64.6406C199.775 63.3636 198.224 61.5099 197.084 59.0795C195.944 56.6491 195.374 53.697 195.374 50.223C195.374 46.7079 195.951 43.7419 197.105 41.3253C198.272 38.8949 199.844 37.0618 201.821 35.826C203.798 34.5765 206.002 33.9517 208.433 33.9517C210.286 33.9517 211.81 34.2675 213.005 34.8991C214.2 35.517 215.147 36.2654 215.847 37.1442C216.548 38.0092 217.09 38.8262 217.475 39.5952H217.783V23.8182H225.26V66H217.928V61.0156H217.475C217.09 61.7846 216.534 62.6016 215.806 63.4666C215.078 64.3179 214.117 65.0457 212.923 65.6499C211.728 66.254 210.225 66.5561 208.412 66.5561ZM210.492 60.4389C212.071 60.4389 213.417 60.0133 214.529 59.1619C215.641 58.2969 216.486 57.0954 217.063 55.5575C217.639 54.0196 217.928 52.2277 217.928 50.1818C217.928 48.1359 217.639 46.3577 217.063 44.8473C216.5 43.3369 215.662 42.1629 214.55 41.3253C213.451 40.4877 212.099 40.0689 210.492 40.0689C208.831 40.0689 207.444 40.5014 206.332 41.3665C205.22 42.2315 204.382 43.4261 203.819 44.9503C203.256 46.4744 202.975 48.2183 202.975 50.1818C202.975 52.1591 203.256 53.9235 203.819 55.4751C204.396 57.013 205.24 58.2282 206.352 59.1207C207.478 59.9995 208.858 60.4389 210.492 60.4389ZM244.105 66.6179C240.947 66.6179 238.235 65.9245 235.969 64.5376C233.717 63.1508 231.98 61.2353 230.758 58.7912C229.55 56.3333 228.946 53.5047 228.946 50.3054C228.946 47.0923 229.564 44.2569 230.799 41.799C232.035 39.3274 233.779 37.4051 236.031 36.032C238.297 34.6451 240.974 33.9517 244.064 33.9517C246.631 33.9517 248.904 34.4254 250.881 35.3729C252.872 36.3066 254.458 37.6316 255.639 39.348C256.82 41.0507 257.493 43.0417 257.657 45.321H250.531C250.243 43.7969 249.556 42.5268 248.471 41.5107C247.4 40.4808 245.965 39.9659 244.167 39.9659C242.643 39.9659 241.304 40.3778 240.15 41.2017C238.997 42.0118 238.098 43.179 237.452 44.7031C236.821 46.2273 236.505 48.0535 236.505 50.1818C236.505 52.3376 236.821 54.1913 237.452 55.7429C238.084 57.2808 238.969 58.4685 240.109 59.3061C241.263 60.13 242.615 60.5419 244.167 60.5419C245.265 60.5419 246.247 60.3359 247.112 59.924C247.991 59.4983 248.725 58.8873 249.316 58.0909C249.906 57.2945 250.311 56.3265 250.531 55.1868H257.657C257.479 57.425 256.82 59.4091 255.68 61.1392C254.541 62.8556 252.989 64.2012 251.025 65.1761C249.062 66.1373 246.755 66.6179 244.105 66.6179ZM268.336 47.4631V66H260.88V34.3636H268.006V39.7393H268.377C269.105 37.968 270.265 36.5606 271.858 35.517C273.464 34.4735 275.448 33.9517 277.81 33.9517C279.993 33.9517 281.895 34.4186 283.515 35.3523C285.149 36.286 286.413 37.6385 287.305 39.4098C288.211 41.1811 288.658 43.33 288.644 45.8565V66H281.188V47.0099C281.188 44.8954 280.639 43.2408 279.54 42.0462C278.456 40.8516 276.952 40.2543 275.03 40.2543C273.725 40.2543 272.565 40.5426 271.549 41.1193C270.546 41.6823 269.757 42.4993 269.18 43.5703C268.617 44.6413 268.336 45.9389 268.336 47.4631ZM293.653 66V23.8182H301.109V39.5952H301.418C301.802 38.8262 302.345 38.0092 303.045 37.1442C303.745 36.2654 304.693 35.517 305.887 34.8991C307.082 34.2675 308.606 33.9517 310.46 33.9517C312.904 33.9517 315.108 34.5765 317.071 35.826C319.049 37.0618 320.614 38.8949 321.767 41.3253C322.935 43.7419 323.518 46.7079 323.518 50.223C323.518 53.697 322.948 56.6491 321.809 59.0795C320.669 61.5099 319.117 63.3636 317.154 64.6406C315.19 65.9176 312.966 66.5561 310.481 66.5561C308.668 66.5561 307.164 66.254 305.97 65.6499C304.775 65.0457 303.814 64.3179 303.086 63.4666C302.372 62.6016 301.816 61.7846 301.418 61.0156H300.985V66H293.653ZM300.965 50.1818C300.965 52.2277 301.253 54.0196 301.83 55.5575C302.42 57.0954 303.265 58.2969 304.363 59.1619C305.476 60.0133 306.821 60.4389 308.4 60.4389C310.048 60.4389 311.428 59.9995 312.54 59.1207C313.652 58.2282 314.49 57.013 315.053 55.4751C315.63 53.9235 315.918 52.1591 315.918 50.1818C315.918 48.2183 315.637 46.4744 315.074 44.9503C314.511 43.4261 313.673 42.2315 312.561 41.3665C311.449 40.5014 310.062 40.0689 308.4 40.0689C306.807 40.0689 305.455 40.4877 304.343 41.3253C303.231 42.1629 302.386 43.3369 301.809 44.8473C301.246 46.3577 300.965 48.1359 300.965 50.1818ZM334.413 23.8182V66H326.957V23.8182H334.413ZM352.98 66.6179C349.89 66.6179 347.212 65.9382 344.947 64.5788C342.681 63.2195 340.924 61.3177 339.674 58.8736C338.438 56.4295 337.82 53.5734 337.82 50.3054C337.82 47.0374 338.438 44.1745 339.674 41.7166C340.924 39.2588 342.681 37.3501 344.947 35.9908C347.212 34.6314 349.89 33.9517 352.98 33.9517C356.069 33.9517 358.747 34.6314 361.012 35.9908C363.278 37.3501 365.029 39.2588 366.264 41.7166C367.514 44.1745 368.139 47.0374 368.139 50.3054C368.139 53.5734 367.514 56.4295 366.264 58.8736C365.029 61.3177 363.278 63.2195 361.012 64.5788C358.747 65.9382 356.069 66.6179 352.98 66.6179ZM353.021 60.6449C354.696 60.6449 356.096 60.1849 357.222 59.2649C358.348 58.3312 359.186 57.0817 359.735 55.5163C360.298 53.951 360.58 52.2071 360.58 50.2848C360.58 48.3487 360.298 46.598 359.735 45.0327C359.186 43.4536 358.348 42.1972 357.222 41.2635C356.096 40.3298 354.696 39.8629 353.021 39.8629C351.304 39.8629 349.876 40.3298 348.737 41.2635C347.611 42.1972 346.766 43.4536 346.203 45.0327C345.654 46.598 345.379 48.3487 345.379 50.2848C345.379 52.2071 345.654 53.951 346.203 55.5163C346.766 57.0817 347.611 58.3312 348.737 59.2649C349.876 60.1849 351.304 60.6449 353.021 60.6449ZM385.367 66.6179C382.208 66.6179 379.497 65.9245 377.231 64.5376C374.979 63.1508 373.242 61.2353 372.02 58.7912C370.812 56.3333 370.208 53.5047 370.208 50.3054C370.208 47.0923 370.825 44.2569 372.061 41.799C373.297 39.3274 375.041 37.4051 377.293 36.032C379.558 34.6451 382.236 33.9517 385.325 33.9517C387.893 33.9517 390.166 34.4254 392.143 35.3729C394.134 36.3066 395.72 37.6316 396.901 39.348C398.082 41.0507 398.754 43.0417 398.919 45.321H391.793C391.504 43.7969 390.818 42.5268 389.733 41.5107C388.662 40.4808 387.227 39.9659 385.428 39.9659C383.904 39.9659 382.565 40.3778 381.412 41.2017C380.259 42.0118 379.359 43.179 378.714 44.7031C378.082 46.2273 377.766 48.0535 377.766 50.1818C377.766 52.3376 378.082 54.1913 378.714 55.7429C379.346 57.2808 380.231 58.4685 381.371 59.3061C382.524 60.13 383.877 60.5419 385.428 60.5419C386.527 60.5419 387.509 60.3359 388.374 59.924C389.253 59.4983 389.987 58.8873 390.578 58.0909C391.168 57.2945 391.573 56.3265 391.793 55.1868H398.919C398.741 57.425 398.082 59.4091 396.942 61.1392C395.802 62.8556 394.251 64.2012 392.287 65.1761C390.324 66.1373 388.017 66.6179 385.367 66.6179ZM408.938 56.0724L408.918 47.0717H410.112L421.482 34.3636H430.194L416.209 49.9347H414.664L408.938 56.0724ZM402.142 66V23.8182H409.597V66H402.142ZM421.997 66L411.698 51.603L416.724 46.3509L430.915 66H421.997ZM457.267 42.7259L450.47 43.4673C450.278 42.7808 449.942 42.1354 449.461 41.5312C448.994 40.9271 448.363 40.4396 447.566 40.0689C446.77 39.6982 445.795 39.5128 444.642 39.5128C443.09 39.5128 441.785 39.8492 440.728 40.522C439.685 41.1948 439.17 42.0668 439.183 43.1378C439.17 44.0578 439.506 44.8061 440.193 45.3828C440.893 45.9595 442.046 46.4332 443.653 46.804L449.049 47.9574C452.043 48.6027 454.267 49.6257 455.723 51.0263C457.192 52.4268 457.933 54.2599 457.947 56.5256C457.933 58.5166 457.35 60.2741 456.196 61.7983C455.057 63.3087 453.471 64.4896 451.438 65.3409C449.406 66.1922 447.072 66.6179 444.436 66.6179C440.563 66.6179 437.446 65.8078 435.085 64.1875C432.723 62.5535 431.316 60.281 430.862 57.37L438.133 56.6697C438.463 58.0978 439.163 59.1757 440.234 59.9034C441.305 60.6312 442.699 60.995 444.415 60.995C446.186 60.995 447.607 60.6312 448.678 59.9034C449.763 59.1757 450.306 58.2763 450.306 57.2053C450.306 56.299 449.955 55.5507 449.255 54.9602C448.569 54.3698 447.498 53.9167 446.042 53.6009L440.646 52.468C437.611 51.8364 435.366 50.7723 433.911 49.2756C432.455 47.7652 431.734 45.8565 431.748 43.5497C431.734 41.5999 432.263 39.911 433.334 38.483C434.419 37.0412 435.922 35.929 437.845 35.1463C439.781 34.3499 442.012 33.9517 444.539 33.9517C448.246 33.9517 451.164 34.7412 453.292 36.3203C455.434 37.8994 456.759 40.0346 457.267 42.7259ZM465.788 66.4531C464.539 66.4531 463.468 66.0137 462.575 65.1349C461.682 64.2562 461.243 63.1851 461.257 61.9219C461.243 60.6861 461.682 59.6288 462.575 58.75C463.468 57.8712 464.539 57.4318 465.788 57.4318C466.996 57.4318 468.047 57.8712 468.939 58.75C469.846 59.6288 470.306 60.6861 470.319 61.9219C470.306 62.7595 470.086 63.5215 469.66 64.2081C469.248 64.8946 468.699 65.4439 468.013 65.8558C467.34 66.254 466.598 66.4531 465.788 66.4531ZM488.917 66.6179C485.759 66.6179 483.047 65.9245 480.781 64.5376C478.529 63.1508 476.792 61.2353 475.57 58.7912C474.362 56.3333 473.758 53.5047 473.758 50.3054C473.758 47.0923 474.376 44.2569 475.612 41.799C476.847 39.3274 478.591 37.4051 480.843 36.032C483.109 34.6451 485.786 33.9517 488.876 33.9517C491.444 33.9517 493.716 34.4254 495.693 35.3729C497.684 36.3066 499.27 37.6316 500.451 39.348C501.632 41.0507 502.305 43.0417 502.47 45.321H495.343C495.055 43.7969 494.368 42.5268 493.283 41.5107C492.212 40.4808 490.778 39.9659 488.979 39.9659C487.455 39.9659 486.116 40.3778 484.962 41.2017C483.809 42.0118 482.91 43.179 482.264 44.7031C481.633 46.2273 481.317 48.0535 481.317 50.1818C481.317 52.3376 481.633 54.1913 482.264 55.7429C482.896 57.2808 483.782 58.4685 484.921 59.3061C486.075 60.13 487.427 60.5419 488.979 60.5419C490.077 60.5419 491.059 60.3359 491.924 59.924C492.803 59.4983 493.538 58.8873 494.128 58.0909C494.718 57.2945 495.123 56.3265 495.343 55.1868H502.47C502.291 57.425 501.632 59.4091 500.492 61.1392C499.353 62.8556 497.801 64.2012 495.837 65.1761C493.874 66.1373 491.567 66.6179 488.917 66.6179ZM519.492 66.6179C516.402 66.6179 513.725 65.9382 511.459 64.5788C509.193 63.2195 507.436 61.3177 506.186 58.8736C504.95 56.4295 504.333 53.5734 504.333 50.3054C504.333 47.0374 504.95 44.1745 506.186 41.7166C507.436 39.2588 509.193 37.3501 511.459 35.9908C513.725 34.6314 516.402 33.9517 519.492 33.9517C522.581 33.9517 525.259 34.6314 527.524 35.9908C529.79 37.3501 531.541 39.2588 532.776 41.7166C534.026 44.1745 534.651 47.0374 534.651 50.3054C534.651 53.5734 534.026 56.4295 532.776 58.8736C531.541 61.3177 529.79 63.2195 527.524 64.5788C525.259 65.9382 522.581 66.6179 519.492 66.6179ZM519.533 60.6449C521.208 60.6449 522.609 60.1849 523.735 59.2649C524.86 58.3312 525.698 57.0817 526.247 55.5163C526.81 53.951 527.092 52.2071 527.092 50.2848C527.092 48.3487 526.81 46.598 526.247 45.0327C525.698 43.4536 524.86 42.1972 523.735 41.2635C522.609 40.3298 521.208 39.8629 519.533 39.8629C517.816 39.8629 516.388 40.3298 515.249 41.2635C514.123 42.1972 513.278 43.4536 512.715 45.0327C512.166 46.598 511.891 48.3487 511.891 50.2848C511.891 52.2071 512.166 53.951 512.715 55.5163C513.278 57.0817 514.123 58.3312 515.249 59.2649C516.388 60.1849 517.816 60.6449 519.533 60.6449ZM538.079 66V34.3636H545.205V39.7393H545.576C546.235 37.9268 547.327 36.5125 548.851 35.4964C550.375 34.4666 552.195 33.9517 554.309 33.9517C556.451 33.9517 558.257 34.4735 559.726 35.517C561.209 36.5469 562.253 37.9543 562.857 39.7393H563.186C563.887 37.9818 565.067 36.5812 566.729 35.5376C568.404 34.4804 570.388 33.9517 572.681 33.9517C575.592 33.9517 577.968 34.8717 579.808 36.7116C581.648 38.5516 582.568 41.236 582.568 44.7649V66H575.091V45.9183C575.091 43.9548 574.569 42.5199 573.526 41.6136C572.482 40.6937 571.205 40.2337 569.695 40.2337C567.896 40.2337 566.489 40.7966 565.472 41.9226C564.47 43.0348 563.969 44.4834 563.969 46.2685V66H556.657V45.6094C556.657 43.9754 556.163 42.6709 555.174 41.696C554.199 40.7211 552.922 40.2337 551.343 40.2337C550.272 40.2337 549.297 40.5083 548.419 41.0575C547.54 41.593 546.839 42.3551 546.318 43.3438C545.796 44.3187 545.535 45.4583 545.535 46.7628V66H538.079Z" fill="black"/>
</svg>
